<svg viewBox="0 0 18 23" fill="none" xmlns="http://www.w3.org/2000/svg">
<path d="M14.5 15C14.5 15 10.5996 20.7143 10.414 20.9C10.2284 21.0858 10.0081 21.2331 9.76556 21.3336C9.52303 21.4342 9.26305 21.4859 9.0005 21.4859C8.73796 21.4859 8.47798 21.4342 8.23544 21.3336C7.99291 21.2331 7.77256 21.0858 7.587 20.9C7.40145 20.7143 3.5 15 3.5 15C3.5 15 1.46234 12.1127 1.15369 10.5609C0.845043 9.00904 1.00349 7.40053 1.60901 5.93874C2.21452 4.47696 3.2399 3.22755 4.55548 2.34852C5.87107 1.46949 7.41777 1.00031 9 1.00031C10.5822 1.00031 12.1289 1.46949 13.4445 2.34852C14.7601 3.22755 15.7855 4.47696 16.391 5.93874C16.9965 7.40053 17.155 9.00904 16.8463 10.5609C16.5377 12.1127 14.5 15 14.5 15Z" stroke="currentColor" stroke-width="2" stroke-linecap="round" stroke-linejoin="round"/>
</svg>
