<svg xmlns="http://www.w3.org/2000/svg" xmlns:xlink="http://www.w3.org/1999/xlink" viewBox="0 0 245.72 495"><g><g><g id="bracelet"><image width="236" height="129"/><path d="M225.36,113.92a49.47,49.47,0,0,1-20.56-26.1c-6-18-5.38-43.33-6.33-50.29S194.91,26.17,189,22.1c-3-2.09-9.72-4.4-24.19-5.68S134.15,15,124,15H122c-10.19,0-26.4.14-40.87,1.41S60,20,57,22.1c-5.87,4.07-8.49,8.47-9.44,15.43s-.31,32.26-6.32,50.29a49.47,49.47,0,0,1-20.56,26.1Z"/><image   width="236" height="130" /><path d="M20.65,380.4a49.52,49.52,0,0,1,20.56,26.1c6,18,5.38,43.33,6.32,50.29S51.1,468.16,57,472.23c3,2.08,9.73,4.39,24.2,5.67s30.68,1.41,40.87,1.41H124c10.18,0,26.39-.14,40.87-1.41S186,474.31,189,472.23c5.88-4.07,8.49-8.48,9.44-15.44s.32-32.26,6.33-50.29a49.52,49.52,0,0,1,20.56-26.1Z"/></g></g></g></svg>